name C:\Users\u0101727\Documents\MyRepositories\upper-imu-dc\Results\main_tracking\Case_41\FLX01_angularVelocities_bodyFrame.mot
datacolumns 4
datarows 58
range 5.01000000 5.58000000
endheader 
time	radius_imu_x	radius_imu_y	radius_imu_z	
          5.01000000	          1.27310264	         -0.32532369	          0.69764139	
          5.02000000	          1.21474095	         -0.30903045	          0.76658482	
          5.03000000	          1.15804263	         -0.28244867	          0.83558330	
          5.04000000	          1.09999722	         -0.26293379	          0.90251503	
          5.05000000	          1.05049242	         -0.22475572	          0.96918145	
          5.06000000	          0.97891962	         -0.20761896	          1.03888294	
          5.07000000	          0.94829189	         -0.15273451	          1.10635692	
          5.08000000	          0.89589203	         -0.10560994	          1.17681023	
          5.09000000	          0.84825041	         -0.06066495	          1.24211554	
          5.10000000	          0.81176877	         -0.00644841	          1.30449784	
          5.11000000	          0.77594829	          0.02742645	          1.37100142	
          5.12000000	          0.80510687	          0.11998720	          1.43930202	
          5.13000000	          0.80403492	          0.17374691	          1.52033608	
          5.14000000	          0.81058377	          0.25108856	          1.59668863	
          5.15000000	          0.81398633	          0.33583410	          1.66844757	
          5.16000000	          0.81578405	          0.43085665	          1.73633986	
          5.17000000	          0.81547983	          0.53304736	          1.80036218	
          5.18000000	          0.81352483	          0.64073686	          1.86054928	
          5.19000000	          0.81030068	          0.75175382	          1.91674253	
          5.20000000	          0.80608980	          0.86408206	          1.96893021	
          5.21000000	          0.80097590	          0.97569941	          2.01711349	
          5.22000000	          0.79489006	          1.08466549	          2.06127462	
          5.23000000	          0.78765884	          1.18922090	          2.10140212	
          5.24000000	          0.77907068	          1.28790098	          2.13752200	
          5.25000000	          0.76893814	          1.37961279	          2.16970793	
          5.26000000	          0.75713991	          1.46366281	          2.19806741	
          5.27000000	          0.74364751	          1.53972953	          2.22272439	
          5.28000000	          0.72856279	          1.60778755	          2.24381843	
          5.29000000	          0.71214732	          1.66801273	          2.26152058	
          5.30000000	          0.69482241	          1.72068916	          2.27603419	
          5.31000000	          0.67713663	          1.76613951	          2.28758174	
          5.32000000	          0.65970931	          1.80469012	          2.29639198	
          5.33000000	          0.64317338	          1.83665428	          2.30267760	
          5.34000000	          0.62811951	          1.86233411	          2.30661211	
          5.35000000	          0.61504000	          1.88203999	          2.30831386	
          5.36000000	          0.60428248	          1.89611450	          2.30783558	
          5.37000000	          0.59602885	          1.90494849	          2.30516095	
          5.38000000	          0.59030956	          1.90898956	          2.30021554	
          5.39000000	          0.58704614	          1.90875021	          2.29289263	
          5.40000000	          0.58610207	          1.90482002	          2.28308471	
          5.41000000	          0.58732400	          1.89788082	          2.27070925	
          5.42000000	          0.59056516	          1.88872279	          2.25572381	
          5.43000000	          0.59569074	          1.87825866	          2.23813034	
          5.44000000	          0.60256725	          1.86753236	          2.21797146	
          5.45000000	          0.61105250	          1.85771344	          2.19532457	
          5.46000000	          0.62098475	          1.85007694	          2.17029394	
          5.47000000	          0.63217672	          1.84596789	          2.14300162	
          5.48000000	          0.64441867	          1.84675458	          2.11357814	
          5.49000000	          0.65747721	          1.85378352	          2.08215514	
          5.50000000	          0.67109542	          1.86833907	          2.04885985	
          5.51000000	          0.68499255	          1.89161664	          2.01381967	
          5.52000000	          0.69886463	          1.92470534	          1.97717475	
          5.53000000	          0.71241132	          1.96856999	          1.93910687	
          5.54000000	          0.72531718	          2.02402290	          1.89983256	
          5.55000000	          0.73713812	          2.09170479	          1.85956923	
          5.56000000	          0.74742860	          2.17199784	          1.81856914	
          5.57000000	          0.75573002	          2.26500423	          1.77714916	
          5.58000000	          0.76163717	          2.37040623	          1.73562731	
